<svg xmlns="http://www.w3.org/2000/svg" width="1024" height="1024" viewBox="0 0 1024 1024"><path fill="#fff" stroke="#fff" d="M0 512V0h1024v1024H0V512m547.484 289.41c50.947-6.265 99.896-26.051 140.11-56.634C744.501 701.498 783.775 639.349 797.41 571c4.566-22.887 5.093-29.107 5.04-59.5-.043-24.935-.365-31.017-2.294-43.393-2.877-18.46-8.679-41.136-14.719-57.524-8.95-24.283-29.267-61.499-39.26-71.915-10.157-10.587-24.719-12.988-37.99-6.263-10.355 5.247-16.358 14.378-17.025 25.896-.558 9.632 1.064 14.164 10.022 28.003 18.407 28.438 30.105 59.389 35.413 93.696 2.443 15.793 2.469 48.088.05 64-7.865 51.745-30.18 95.201-67.271 131-34.867 33.652-77.003 54.208-126.376 61.651-15.688 2.365-46.312 2.365-62 0-25.797-3.889-45.862-10.076-68.652-21.167-24.323-11.837-43.253-25.523-62.458-45.159-11.929-12.197-18.112-19.741-26.805-32.704-18.282-27.263-29.994-57.461-35.728-92.121-2.57-15.533-2.566-51.518.008-67 5.713-34.36 17.517-65.092 35.145-91.5 36.279-54.346 93.021-90.115 158.04-99.623 15.862-2.32 47.77-2.345 62.239-.05 12.038 1.91 28.019 5.544 28.596 6.504.221.368-2.251 8.049-5.492 17.07-7.608 21.173-7.652 25.63-.286 28.708 3.339 1.395 5.031.989 54.294-13.061 27.966-7.976 52.006-14.942 53.421-15.48s3.317-2.113 4.226-3.5c3.557-5.428 2.814-7.171-20.278-47.638-12.061-21.136-24.722-43.451-28.135-49.587s-6.847-11.689-7.631-12.34-3.179-1.418-5.323-1.706c-6.457-.866-8.93 2.427-15.594 20.762l-5.656 15.559-12.659-3.272c-26.03-6.728-35.36-7.773-69.772-7.807-25.012-.025-33.125.312-42 1.745-55.578 8.972-101.603 29.379-144.5 64.068-11.305 9.142-32.677 30.826-42.035 42.648-41.576 52.524-63.153 114.287-63.233 181-.033 27.801 2.708 50.075 9.276 75.369 25.461 98.06 102.603 177.311 199.995 205.463 19.448 5.622 46.248 10.277 66.497 11.552 10.372.653 38.469-.435 50.984-1.974m44.704-156.209c7.56-3.055 14.967-10.14 18.505-17.701l2.807-6v-57c0-52.694-.135-57.302-1.796-61-4.37-9.732-10.001-15.22-19.624-19.127l-5.58-2.266-.55-21.803c-.61-24.161-1.57-29.52-7.518-41.967-6.556-13.72-19.457-26.884-32.957-33.631-11.168-5.581-18.866-7.208-33.975-7.178-13.078.026-14.576.233-22.761 3.135-11.328 4.017-18.478 8.323-26.929 16.218-11.925 11.14-19.246 24.525-22.401 40.957-.9 4.688-1.409 14.092-1.409 26.043v18.704l-4.312 1.154c-6.073 1.624-13.493 7.039-17.386 12.688-6.389 9.27-6.398 9.38-6.085 70.192l.283 54.881 2.635 5.62c5.072 10.816 14.174 17.9 25.515 19.853 2.667.459 37.025.766 76.35.681l71.5-.154 5.688-2.299"/><path fill="#1f579c" stroke="#1f579c" d="M496.5 803.384c-66.24-4.17-126.943-28.946-176.756-72.143-30.367-26.334-57.791-63.229-73.803-99.29-24.821-55.901-31.677-119.013-19.454-179.087 14.606-71.787 55.438-134.456 116.013-178.055 36.829-26.507 79.547-43.703 128-51.525 8.875-1.433 16.988-1.77 42-1.745 34.412.034 43.742 1.079 69.772 7.807l12.659 3.272 5.656-15.559c6.664-18.335 9.137-21.628 15.594-20.762 2.144.288 4.539 1.055 5.323 1.706s4.218 6.204 7.631 12.34 16.074 28.451 28.135 49.587c23.092 40.467 23.835 42.21 20.278 47.638-.909 1.387-2.811 2.962-4.226 3.5s-25.455 7.504-53.421 15.48c-49.263 14.05-50.955 14.456-54.294 13.061-7.366-3.078-7.322-7.535.286-28.708 3.241-9.021 5.713-16.702 5.492-17.07-.577-.96-16.558-4.594-28.596-6.504-14.469-2.295-46.377-2.27-62.239.05-91.762 13.419-166.151 79.846-188.358 168.197-5.487 21.829-6.655 31.737-6.655 56.426 0 25.109 1.187 34.894 6.994 57.64 16.063 62.92 60.455 116.954 119.817 145.844 22.79 11.091 42.855 17.278 68.652 21.167 15.688 2.365 46.312 2.365 62 0 49.373-7.443 91.509-27.999 126.376-61.651 37.091-35.799 59.406-79.255 67.271-131 2.419-15.912 2.393-48.207-.05-64-5.308-34.307-17.006-65.258-35.413-93.696-8.958-13.839-10.58-18.371-10.022-28.003.667-11.518 6.67-20.649 17.025-25.896 13.271-6.725 27.833-4.324 37.99 6.263 9.993 10.416 30.31 47.632 39.26 71.915 6.04 16.388 11.842 39.064 14.719 57.524 1.929 12.376 2.251 18.458 2.294 43.393.053 30.393-.474 36.613-5.04 59.5-13.635 68.349-52.909 130.498-109.816 173.776-40.214 30.583-89.163 50.369-140.11 56.634-12.515 1.539-40.612 2.627-50.984 1.974m58-23.321c55.558-9.032 105.584-34.062 145.701-72.899 44.3-42.887 70.213-93.137 80.365-155.841 2.167-13.384 3.018-50.771 1.501-65.951-2.397-23.987-9.307-52.384-18.147-74.574-9.254-23.231-29.447-57.898-35.268-60.548-6.016-2.739-13.395-.582-16.135 4.717-2.941 5.687-2.048 8.903 5.866 21.128 25.635 39.602 38.516 80.318 40.307 127.405 2.583 67.907-23.209 133.877-71.181 182.062-38.03 38.198-84.287 61.778-138.509 70.607-18.295 2.979-53.546 3.201-71.5.451-15.124-2.317-36.813-7.709-49.909-12.41-22.719-8.155-52.288-24.886-71.267-40.325C295.882 654.714 262.411 580.812 265.34 503c2.044-54.3 19.85-102.568 53.677-145.51 7.995-10.149 28.064-30.047 38.823-38.49 34.648-27.191 73.374-44.096 117.16-51.144 18.13-2.918 52.799-3.182 70-.533 22.006 3.389 43.879 9.466 47.652 13.239 3.385 3.385 3.016 7.87-1.701 20.69-2.227 6.052-3.914 11.561-3.75 12.242.209.867 10.276-1.615 33.549-8.269 18.287-5.229 33.25-9.833 33.25-10.232 0-1.494-36.069-63.48-36.769-63.189-.402.167-2.223 4.442-4.047 9.5-5.256 14.579-8.146 16.298-20.37 12.121-73.298-25.043-163.106-12.641-229.814 31.738-67.951 45.205-110.242 113.413-120.597 194.503-2.164 16.948-2.155 47.588.02 64.739 4.043 31.886 12.013 58.541 26.04 87.095C308.078 712.139 381.38 765.691 472.5 780.563c21.973 3.586 58.224 3.365 82-.5"/><path fill="#1f579c" stroke="#1f579c" d="M438.65 646.973c-11.341-1.953-20.443-9.037-25.515-19.853l-2.635-5.62-.283-54.881c-.313-60.812-.304-60.922 6.085-70.192 3.893-5.649 11.313-11.064 17.386-12.688l4.312-1.154v-18.704c0-11.951.509-21.355 1.409-26.043 3.155-16.432 10.476-29.817 22.401-40.957 8.451-7.895 15.601-12.201 26.929-16.218 8.185-2.902 9.683-3.109 22.761-3.135 15.109-.03 22.807 1.597 33.975 7.178 13.5 6.747 26.401 19.911 32.957 33.631 5.948 12.447 6.908 17.806 7.518 41.967l.55 21.803 5.58 2.266c9.623 3.907 15.254 9.395 19.624 19.127 1.661 3.698 1.796 8.306 1.796 61v57l-2.807 6c-3.538 7.561-10.945 14.646-18.505 17.701L586.5 647.5l-71.5.154c-39.325.085-73.683-.222-76.35-.681m148.494-21.739c7.005-4.356 6.856-3.042 6.852-60.885-.004-49.973-.076-51.967-1.991-55.108-1.093-1.793-3.453-4.153-5.246-5.246-3.172-1.934-5.177-1.987-74.559-1.991-77.254-.004-73.854-.24-79.2 5.481l-2.5 2.675-.295 51.67c-.162 28.419-.033 53.115.288 54.881.715 3.936 5.535 8.942 9.822 10.2 1.867.548 32.148.864 73.185.762l70-.173 3.644-2.266M565.499 461c-.001-18.822-.189-21.047-2.311-27.19C555.472 411.473 535.347 397 512 397c-25.451 0-47.248 17.649-52.489 42.5-1.517 7.191-2.182 40.496-.836 41.842.371.371 24.559.559 53.75.417l53.075-.259-.001-20.5"/><path fill="#fff" stroke="#fff" d="M496.5 782.848c-38.23-1.782-80.828-13.978-115.016-32.929-77.319-42.86-127.918-117.639-139.061-205.514-2.175-17.151-2.184-47.791-.02-64.739 11.705-91.663 65.671-168.606 147.097-209.729 63.607-32.123 139.566-38.293 203.314-16.512 12.224 4.177 15.114 2.458 20.37-12.121 1.824-5.058 3.645-9.333 4.047-9.5.7-.291 36.769 61.695 36.769 63.189 0 .399-14.963 5.003-33.25 10.232-23.273 6.654-33.34 9.136-33.549 8.269-.164-.681 1.523-6.19 3.75-12.242 4.717-12.82 5.086-17.305 1.701-20.69-3.773-3.773-25.646-9.85-47.652-13.239-17.201-2.649-51.87-2.385-70 .533-43.786 7.048-82.512 23.953-117.16 51.144-10.759 8.443-30.828 28.341-38.823 38.49C285.19 400.432 267.384 448.7 265.34 503c-2.929 77.812 30.542 151.714 90.984 200.885 18.979 15.439 48.548 32.17 71.267 40.325 13.096 4.701 34.785 10.093 49.909 12.41 17.954 2.75 53.205 2.528 71.5-.451 44.113-7.183 83.521-24.485 118-51.809 18.6-14.741 40.563-39.411 54.18-60.86 37.706-59.394 47.803-135.109 27.138-203.5-6.952-23.008-16.091-42.518-29.935-63.905-7.914-12.225-8.807-15.441-5.866-21.128 2.74-5.299 10.119-7.456 16.135-4.717 5.821 2.65 26.014 37.317 35.268 60.548 8.84 22.19 15.75 50.587 18.147 74.574 1.517 15.18.666 52.567-1.501 65.951-5.245 32.399-13.514 58.108-27.396 85.177-26.573 51.815-72.149 95.771-125.408 120.952-40.506 19.151-84.132 27.592-131.262 25.396"/><path fill="#fff" stroke="#fff" d="M440.315 626.911c-4.287-1.258-9.107-6.264-9.822-10.2-.321-1.766-.45-26.462-.288-54.881l.295-51.67 2.5-2.675c5.346-5.721 1.946-5.485 79.2-5.481 69.382.004 71.387.057 74.559 1.991 1.793 1.093 4.153 3.453 5.246 5.246 1.915 3.141 1.987 5.135 1.991 55.108.004 57.843.153 56.529-6.852 60.885L583.5 627.5l-70 .173c-41.037.102-71.318-.214-73.185-.762m88.395-29.913c-.288-1.101-1.546-7.641-2.795-14.532l-2.271-12.529 2.197-1.538c3.487-2.442 7.159-10.676 7.159-16.05 0-17.555-20.779-27.398-34.304-16.25-9.309 7.673-10.239 21.234-2.108 30.733l3.596 4.201-2.092 12.383C496.941 590.227 496 596.52 496 597.4c0 1.403 2.05 1.6 16.617 1.6 16.131 0 16.601-.058 16.093-2.002"/><path fill="#1f579c" stroke="#1f579c" d="M496 597.4c0-.88.941-7.173 2.092-13.984l2.092-12.383-3.596-4.201c-8.131-9.499-7.201-23.06 2.108-30.733 13.525-11.148 34.304-1.305 34.304 16.25 0 5.374-3.672 13.608-7.159 16.05l-2.197 1.538 2.271 12.529c1.249 6.891 2.507 13.431 2.795 14.532.508 1.944.038 2.002-16.093 2.002-14.567 0-16.617-.197-16.617-1.6"/><path fill="#fff" stroke="#fff" d="M458.675 481.342c-1.346-1.346-.681-34.651.836-41.842 2.225-10.549 6.807-18.985 14.41-26.527 28.747-28.517 76.031-17.479 89.267 20.837 2.122 6.143 2.31 8.368 2.311 27.19l.001 20.5-53.075.259c-29.191.142-53.379-.046-53.75-.417"/></svg>